<svg xmlns="http://www.w3.org/2000/svg" xmlns:xlink="http://www.w3.org/1999/xlink" version="1.1" x="0px" y="0px" viewBox="0 0 100 80" enable-background="new 0 0 100 100" xml:space="preserve"><g><path d="M93.11,41.848c-6.725-11.731-31.374-24.233-41.869-24.839c-4.448-0.256-7.791,0.855-9.917,3.308   c-2.606,3.006-2.52,7.091-2.329,8.874L4.419,59.376c-0.008,0.006-0.012,0.015-0.018,0.021c-0.102,0.091-0.188,0.196-0.261,0.313   c-0.013,0.021-0.028,0.041-0.04,0.062c-0.057,0.102-0.105,0.208-0.139,0.324c-0.105,0.372-0.979,3.691,0.842,5.511   c0.336,0.337,0.605,0.606,3.271,0.606c1.885,0,4.967-0.135,10.117-0.477c7.562-0.501,17.194-1.329,26.43-2.271   c14.463-1.477,39.563-4.406,45.165-7.434c0.146-0.079,0.27-0.185,0.378-0.3c1.237-0.734,2.577-2.1,3.827-4.545   C95.39,48.449,95.093,45.307,93.11,41.848z M41.33,31.134c0.46-0.117,1.572-0.346,3.271-0.346c5.605,0,17.247,2.42,33.583,18.148   l-68.01,9.396L41.33,31.134z M6.763,63.196c-0.112-0.339-0.118-0.852-0.069-1.354l74.754-10.328   c0.487,1.271,1.261,2.474,2.249,3.384c-7.023,1.684-20.457,3.622-38.038,5.445C25.653,62.419,9.812,63.396,6.763,63.196z    M91.319,49.823c-0.771,1.511-2.342,3.993-4.176,3.651c-1.518-0.282-3.043-2.395-3.266-4.52c-0.09-0.854,0.007-1.954,0.976-2.355   c1.119-0.464,1.646-0.418,1.733-0.375c0.178,0.198,0.193,1.198-0.041,2.035c-0.229,0.796,0.232,1.627,1.029,1.855   c0.797,0.224,1.627-0.233,1.855-1.029c0.165-0.577,0.902-3.538-0.844-5.097c-1.107-0.991-2.751-1.045-4.881-0.161   c-1.516,0.627-2.484,1.921-2.767,3.604c-17.449-17.044-30.2-19.644-36.338-19.644c-1.088,0-1.98,0.08-2.682,0.181   c-0.047-1.551,0.17-3.966,1.682-5.699c1.484-1.703,3.999-2.464,7.467-2.267c9.661,0.558,33.247,12.534,39.439,23.337   C91.954,45.863,92.228,48.045,91.319,49.823z"/><path d="M43.842,33.631c-3.51,0-7.062,1.224-7.062,3.562s3.553,3.562,7.062,3.562s7.062-1.224,7.062-3.562   S47.352,33.631,43.842,33.631z"/><path d="M57.592,42.256c-3.51,0-7.062,1.224-7.062,3.562s3.553,3.562,7.062,3.562s7.062-1.224,7.062-3.562   S61.102,42.256,57.592,42.256z"/><path d="M31.593,45.756c-3.51,0-7.062,1.224-7.062,3.562s3.553,3.562,7.062,3.562s7.062-1.224,7.062-3.562   S35.103,45.756,31.593,45.756z"/></g></svg>